<svg xmlns="http://www.w3.org/2000/svg" xmlns:xlink="http://www.w3.org/1999/xlink" width="500" zoomAndPan="magnify" viewBox="0 0 375 374.999991" height="500" preserveAspectRatio="xMidYMid meet" version="1.0"><defs><g/><clipPath id="2f4ef611cc"><path d="M 31 188 L 67.945312 188 L 67.945312 225 L 31 225 Z M 31 188 " clip-rule="nonzero"/></clipPath><clipPath id="f2d31b314a"><path d="M 10.195312 188 L 29 188 L 29 225 L 10.195312 225 Z M 10.195312 188 " clip-rule="nonzero"/></clipPath><clipPath id="a730f788ec"><path d="M 10.195312 150.070312 L 29 150.070312 L 29 187 L 10.195312 187 Z M 10.195312 150.070312 " clip-rule="nonzero"/></clipPath><clipPath id="b09ea42337"><path d="M 31 150.070312 L 67.945312 150.070312 L 67.945312 187 L 31 187 Z M 31 150.070312 " clip-rule="nonzero"/></clipPath><clipPath id="933a60aa70"><path d="M 4 0.121094 L 50 0.121094 L 50 65 L 4 65 Z M 4 0.121094 " clip-rule="nonzero"/></clipPath><clipPath id="1fc5246787"><rect x="0" width="282" y="0" height="79"/></clipPath></defs><g clip-path="url(#2f4ef611cc)"><path fill="#323644" d="M 49.484375 188.597656 C 45.613281 188.597656 41.917969 189.796875 38.796875 192.074219 C 36.53125 193.722656 34.652344 195.90625 33.363281 198.386719 C 32.027344 200.953125 31.324219 203.84375 31.324219 206.753906 L 31.324219 224.914062 L 49.484375 224.914062 C 59.496094 224.914062 67.640625 216.765625 67.640625 206.753906 C 67.640625 196.742188 59.496094 188.597656 49.484375 188.597656 Z M 49.484375 188.597656 " fill-opacity="1" fill-rule="nonzero"/></g><g clip-path="url(#f2d31b314a)"><path fill="#323644" d="M 16.089844 193.261719 C 12.777344 196.25 10.683594 200.328125 10.195312 204.742188 L 10.195312 224.914062 L 28.460938 224.914062 L 28.460938 188.597656 L 28.242188 188.597656 C 23.746094 188.597656 19.429688 190.253906 16.089844 193.261719 Z M 16.089844 193.261719 " fill-opacity="1" fill-rule="nonzero"/></g><g clip-path="url(#a730f788ec)"><path fill="#323644" d="M 10.195312 170.238281 L 10.195312 170.25 C 10.679688 174.664062 12.777344 178.742188 16.089844 181.726562 C 19.425781 184.738281 23.746094 186.394531 28.242188 186.394531 L 28.460938 186.394531 L 28.460938 150.078125 L 10.195312 150.078125 Z M 10.195312 170.238281 " fill-opacity="1" fill-rule="nonzero"/></g><g clip-path="url(#b09ea42337)"><path fill="#323644" d="M 38.691406 183 C 41.785156 185.222656 45.441406 186.394531 49.265625 186.394531 C 59.277344 186.394531 67.421875 178.25 67.421875 168.234375 C 67.421875 158.222656 59.273438 150.078125 49.261719 150.078125 L 31.324219 150.078125 L 31.324219 171.078125 C 32.074219 175.832031 34.757812 180.179688 38.691406 183 Z M 38.691406 183 " fill-opacity="1" fill-rule="nonzero"/></g><g transform="matrix(1, 0, 0, 1, 88, 147)"><g clip-path="url(#1fc5246787)"><g clip-path="url(#933a60aa70)"><g fill="#323644" fill-opacity="1"><g transform="translate(0.52548, 63.178572)"><g><path d="M 4.0625 0 L 4.0625 -62.5625 L 17.78125 -62.5625 L 17.78125 -34.90625 C 19.144531 -36.40625 20.789062 -37.566406 22.71875 -38.390625 C 24.65625 -39.222656 26.628906 -39.71875 28.640625 -39.875 C 28.835938 -39.875 29.023438 -39.875 29.203125 -39.875 C 29.378906 -39.875 29.566406 -39.875 29.765625 -39.875 C 35.492188 -39.875 40.15625 -37.828125 43.75 -33.734375 C 47.34375 -29.640625 49.140625 -24.828125 49.140625 -19.296875 C 49.140625 -13.710938 47.332031 -8.882812 43.71875 -4.8125 C 40.101562 -0.75 35.40625 1.28125 29.625 1.28125 C 29.46875 1.28125 29.3125 1.28125 29.15625 1.28125 C 29.007812 1.28125 28.863281 1.28125 28.71875 1.28125 C 26.601562 1.175781 24.566406 0.6875 22.609375 -0.1875 C 20.648438 -1.0625 19.09375 -2.40625 17.9375 -4.21875 L 17.78125 -4.296875 L 17.78125 0 Z M 26.15625 -28.046875 C 23.394531 -27.992188 21.234375 -27.097656 19.671875 -25.359375 C 18.117188 -23.628906 17.34375 -21.582031 17.34375 -19.21875 C 17.34375 -16.757812 18.117188 -14.695312 19.671875 -13.03125 C 21.234375 -11.375 23.394531 -10.546875 26.15625 -10.546875 C 28.96875 -10.546875 31.140625 -11.375 32.671875 -13.03125 C 34.203125 -14.695312 34.96875 -16.757812 34.96875 -19.21875 C 34.96875 -21.582031 34.203125 -23.628906 32.671875 -25.359375 C 31.140625 -27.097656 28.96875 -27.96875 26.15625 -27.96875 Z M 26.15625 -28.046875 "/></g></g></g></g><g fill="#323644" fill-opacity="1"><g transform="translate(51.926992, 63.178572)"><g><path d="M 18.234375 -38.671875 L 18.234375 0 L 4.515625 0 L 4.515625 -38.671875 Z M 11.375 -61.203125 C 13.488281 -61.148438 15.296875 -60.367188 16.796875 -58.859375 C 18.304688 -57.359375 19.0625 -55.550781 19.0625 -53.4375 C 19.0625 -51.332031 18.304688 -49.523438 16.796875 -48.015625 C 15.296875 -46.503906 13.488281 -45.75 11.375 -45.75 C 9.269531 -45.75 7.460938 -46.503906 5.953125 -48.015625 C 4.441406 -49.523438 3.6875 -51.332031 3.6875 -53.4375 C 3.6875 -55.550781 4.441406 -57.359375 5.953125 -58.859375 C 7.460938 -60.367188 9.269531 -61.125 11.375 -61.125 Z M 11.375 -61.203125 "/></g></g></g><g fill="#323644" fill-opacity="1"><g transform="translate(74.688359, 63.178572)"><g><path d="M 18.234375 -38.671875 L 18.234375 -33.84375 L 18.390625 -33.84375 C 19.992188 -35.957031 21.8125 -37.488281 23.84375 -38.4375 C 25.882812 -39.394531 28.140625 -39.875 30.609375 -39.875 C 33.421875 -39.875 35.96875 -39.28125 38.25 -38.09375 C 40.539062 -36.914062 42.390625 -35.046875 43.796875 -32.484375 C 45.097656 -34.898438 46.953125 -36.734375 49.359375 -37.984375 C 51.773438 -39.242188 54.289062 -39.875 56.90625 -39.875 C 61.832031 -39.875 65.257812 -38.441406 67.1875 -35.578125 C 69.125 -32.710938 70.09375 -29.046875 70.09375 -24.578125 L 70.09375 0 L 56.375 0 L 56.375 -18.46875 C 56.375 -18.46875 56.375 -18.492188 56.375 -18.546875 C 56.375 -18.597656 56.375 -18.644531 56.375 -18.6875 C 56.375 -19.195312 56.375 -19.75 56.375 -20.34375 C 56.375 -20.945312 56.351562 -21.550781 56.3125 -22.15625 C 56.15625 -23.863281 55.710938 -25.421875 54.984375 -26.828125 C 54.253906 -28.234375 52.835938 -28.9375 50.734375 -28.9375 C 48.171875 -28.9375 46.472656 -28.109375 45.640625 -26.453125 C 44.804688 -24.796875 44.34375 -22.988281 44.25 -21.03125 C 44.195312 -20.570312 44.171875 -20.117188 44.171875 -19.671875 C 44.171875 -19.222656 44.171875 -18.796875 44.171875 -18.390625 L 44.171875 0 L 30.453125 0 L 30.453125 -18.46875 C 30.453125 -18.96875 30.453125 -19.519531 30.453125 -20.125 C 30.453125 -20.726562 30.425781 -21.359375 30.375 -22.015625 C 30.226562 -23.816406 29.75 -25.472656 28.9375 -26.984375 C 28.132812 -28.492188 26.601562 -29.25 24.34375 -29.25 C 22.082031 -29.25 20.550781 -28.492188 19.75 -26.984375 C 18.945312 -25.472656 18.46875 -23.816406 18.3125 -22.015625 C 18.257812 -21.359375 18.234375 -20.726562 18.234375 -20.125 C 18.234375 -19.519531 18.234375 -18.941406 18.234375 -18.390625 L 18.234375 0 L 4.515625 0 L 4.515625 -38.671875 Z M 18.234375 -38.671875 "/></g></g></g><g fill="#323644" fill-opacity="1"><g transform="translate(149.228074, 63.178572)"><g><path d="M 44.25 -18.46875 L 44.25 -17.03125 L 15.375 -17.03125 C 15.375 -14.21875 16.101562 -12.066406 17.5625 -10.578125 C 19.019531 -9.097656 21.15625 -8.359375 23.96875 -8.359375 C 25.425781 -8.359375 26.691406 -8.632812 27.765625 -9.1875 C 28.847656 -9.75 29.769531 -10.65625 30.53125 -11.90625 L 43.71875 -11.984375 C 42.613281 -7.359375 40.160156 -3.988281 36.359375 -1.875 C 32.566406 0.226562 28.460938 1.28125 24.046875 1.28125 C 17.660156 1.28125 12.332031 -0.460938 8.0625 -3.953125 C 3.789062 -7.453125 1.65625 -12.539062 1.65625 -19.21875 C 1.65625 -25.65625 3.648438 -30.707031 7.640625 -34.375 C 11.640625 -38.039062 16.78125 -39.875 23.0625 -39.875 C 29.800781 -39.875 35.015625 -37.9375 38.703125 -34.0625 C 42.398438 -30.195312 44.25 -24.972656 44.25 -18.390625 Z M 15.609375 -24.953125 L 31.5 -24.953125 C 31.15625 -26.753906 30.238281 -28.207031 28.75 -29.3125 C 27.269531 -30.425781 25.601562 -30.984375 23.75 -30.984375 C 21.738281 -30.984375 19.976562 -30.46875 18.46875 -29.4375 C 16.957031 -28.40625 16.003906 -26.882812 15.609375 -24.875 Z M 15.609375 -24.953125 "/></g></g></g><g fill="#323644" fill-opacity="1"><g transform="translate(195.203035, 63.178572)"><g><path d="M 18.234375 -38.671875 L 18.234375 -32.328125 L 18.390625 -32.328125 C 19.691406 -34.640625 21.4375 -36.347656 23.625 -37.453125 C 25.8125 -38.566406 28.238281 -39.125 30.90625 -39.125 L 33.546875 -39.1875 L 33.546875 -26 C 33.335938 -26.050781 33.144531 -26.125 32.96875 -26.21875 C 32.800781 -26.320312 32.613281 -26.398438 32.40625 -26.453125 C 31.65625 -26.753906 30.898438 -26.953125 30.140625 -27.046875 C 29.390625 -27.148438 28.585938 -27.203125 27.734375 -27.203125 C 23.921875 -27.203125 21.382812 -26.082031 20.125 -23.84375 C 18.863281 -21.613281 18.234375 -18.84375 18.234375 -15.53125 L 18.234375 0 L 4.515625 0 L 4.515625 -38.671875 Z M 18.234375 -38.671875 "/></g></g></g><g fill="#323644" fill-opacity="1"><g transform="translate(229.345086, 63.178572)"><g><path d="M 46.8125 -38.671875 L 46.8125 0 L 33.09375 0 L 33.09375 -4.296875 L 32.9375 -4.296875 C 31.832031 -2.484375 30.320312 -1.132812 28.40625 -0.25 C 26.5 0.625 24.519531 1.109375 22.46875 1.203125 C 22.257812 1.253906 22.054688 1.28125 21.859375 1.28125 C 21.660156 1.28125 21.457031 1.28125 21.25 1.28125 C 15.519531 1.28125 10.832031 -0.765625 7.1875 -4.859375 C 3.550781 -8.953125 1.734375 -13.765625 1.734375 -19.296875 C 1.734375 -24.828125 3.53125 -29.640625 7.125 -33.734375 C 10.71875 -37.828125 15.378906 -39.875 21.109375 -39.875 C 21.359375 -39.875 21.609375 -39.875 21.859375 -39.875 C 22.109375 -39.875 22.359375 -39.847656 22.609375 -39.796875 C 24.566406 -39.648438 26.488281 -39.160156 28.375 -38.328125 C 30.257812 -37.492188 31.832031 -36.328125 33.09375 -34.828125 L 33.09375 -38.671875 Z M 24.71875 -28.046875 C 21.957031 -27.992188 19.796875 -27.097656 18.234375 -25.359375 C 16.679688 -23.628906 15.90625 -21.582031 15.90625 -19.21875 C 15.90625 -16.757812 16.679688 -14.695312 18.234375 -13.03125 C 19.796875 -11.375 21.957031 -10.546875 24.71875 -10.546875 C 27.53125 -10.546875 29.703125 -11.375 31.234375 -13.03125 C 32.773438 -14.695312 33.546875 -16.757812 33.546875 -19.21875 C 33.546875 -21.582031 32.773438 -23.628906 31.234375 -25.359375 C 29.703125 -27.097656 27.53125 -27.96875 24.71875 -27.96875 Z M 24.71875 -28.046875 "/></g></g></g></g></g></svg>