<svg xmlns="http://www.w3.org/2000/svg" xmlns:xlink="http://www.w3.org/1999/xlink" width="615" height="350" viewBox="0 0 615 350">
  <defs>
    <clipPath id="clip-Heidelberg_Materials">
      <rect width="615" height="350"/>
    </clipPath>
  </defs>
  <g id="Heidelberg_Materials" data-name="Heidelberg Materials" clip-path="url(#clip-Heidelberg_Materials)">
    <g id="Gruppe_414" data-name="Gruppe 414" transform="translate(161.268 132.979)">
      <path id="Pfad_5450" data-name="Pfad 5450" d="M51.718,0H0V51.718C0,71.112,12.929,84.042,32.324,84.042H84.042V32.324C84.042,12.929,71.112,0,51.718,0M38.788,71.112H32.324c-12,0-19.394-7.278-19.394-19.394V12.929H38.788Zm32.324,0H64.647c-11.891,0-19.394-7.59-19.394-19.394V29.091h6.465c12.079,0,19.394,7.361,19.394,19.394Z"/>
      <path id="Pfad_5451" data-name="Pfad 5451" d="M348.879,182.3V158.043h4.782l8.143,12.2,8.282-12.2h4.643V182.3H369.67V166.567l-6.757,9.841H360.7l-6.757-9.841V182.3Z" transform="translate(-245.444 -111.187)"/>
      <path id="Pfad_5452" data-name="Pfad 5452" d="M446.7,186.073a9.409,9.409,0,0,1,9.563-9.564,7.719,7.719,0,0,1,6.306,2.772l.1-2.426h4.539V195.29h-4.539l-.1-2.426a7.72,7.72,0,0,1-6.306,2.772,9.409,9.409,0,0,1-9.563-9.564M457,191.651a5.579,5.579,0,1,0-5.579-5.579A5.468,5.468,0,0,0,457,191.651" transform="translate(-314.266 -124.178)"/>
      <path id="Pfad_5453" data-name="Pfad 5453" d="M528.3,170.053h-4.227v-4.3H528.3v-5.024h4.782v5.024H539.8v4.3h-6.722v6.306q0,3.534,3.535,3.534H539.8v4.3h-4.019c-4.92,0-7.485-2.564-7.485-7.484Z" transform="translate(-368.696 -113.078)"/>
      <path id="Pfad_5454" data-name="Pfad 5454" d="M584.029,186.074a9.3,9.3,0,0,1,9.632-9.564c5.821,0,9.564,3.881,9.564,9.564,0,.693,0,.936-.069,1.975H589.018c.52,2.01,2.218,3.638,5.267,3.638a6.1,6.1,0,0,0,4.99-2.01l2.98,2.98a11.22,11.22,0,0,1-8.177,2.98c-6.479,0-10.048-3.881-10.048-9.564m14.414-1.906a4.308,4.308,0,0,0-4.573-3.708,4.772,4.772,0,0,0-4.99,3.708Z" transform="translate(-410.877 -124.178)"/>
      <path id="Pfad_5455" data-name="Pfad 5455" d="M659.178,196.112V185.648c0-4.851,3.119-7.97,7.97-7.97h4.3v4.3h-3.188c-3.049,0-4.3,1.247-4.3,4.3v9.841Z" transform="translate(-463.745 -125)"/>
      <path id="Pfad_5456" data-name="Pfad 5456" d="M708.265,149.527a2.882,2.882,0,1,1,2.876,2.7,2.614,2.614,0,0,1-2.876-2.7m.485,6.48h4.782v18.4H708.75Z" transform="translate(-498.279 -103.294)"/>
      <path id="Pfad_5457" data-name="Pfad 5457" d="M736.665,186.073a9.41,9.41,0,0,1,9.564-9.564,7.719,7.719,0,0,1,6.307,2.772l.1-2.426h4.539V195.29h-4.539l-.1-2.426a7.72,7.72,0,0,1-6.307,2.772,9.41,9.41,0,0,1-9.564-9.564m10.291,5.579a5.579,5.579,0,1,0-5.579-5.579,5.468,5.468,0,0,0,5.579,5.579" transform="translate(-518.259 -124.178)"/>
      <rect id="Rechteck_137" data-name="Rechteck 137" width="4.782" height="25.642" transform="translate(242.904 45.47)"/>
      <path id="Pfad_5458" data-name="Pfad 5458" d="M843.838,192.518l2.98-2.98c1.386,1.386,4.02,2.218,6.584,2.218,2.634,0,3.673-.554,3.673-1.525,0-1.039-1.039-1.524-5.094-2.287-4.747-.9-7.554-2.356-7.554-5.821,0-3.6,3.708-5.614,8.49-5.614,4.019,0,6.93,1.352,8.559,2.98l-2.98,2.98a8,8,0,0,0-5.648-2.079c-2.356,0-3.638.554-3.638,1.525s.866,1.386,5.3,2.287c4.3.866,7.346,2.218,7.346,5.821s-3.292,5.614-8.767,5.614c-4.5,0-7.45-1.317-9.252-3.119" transform="translate(-593.657 -124.178)"/>
      <path id="Pfad_5459" data-name="Pfad 5459" d="M365.719,67.865v-9.7H353.938v9.7h-5.059V43.61h5.059v9.91h11.781V43.61h5.059V67.865Z" transform="translate(-245.444 -30.68)"/>
      <path id="Pfad_5460" data-name="Pfad 5460" d="M433.38,71.64a9.3,9.3,0,0,1,9.633-9.564c5.821,0,9.564,3.881,9.564,9.564,0,.693,0,.936-.069,1.975H438.369c.52,2.01,2.218,3.638,5.267,3.638a6.1,6.1,0,0,0,4.99-2.01l2.98,2.98a11.219,11.219,0,0,1-8.178,2.98c-6.48,0-10.048-3.881-10.048-9.564m14.414-1.906a4.308,4.308,0,0,0-4.574-3.707,4.771,4.771,0,0,0-4.99,3.707Z" transform="translate(-304.892 -43.672)"/>
      <path id="Pfad_5461" data-name="Pfad 5461" d="M507.361,35.093a2.882,2.882,0,1,1,2.876,2.7,2.614,2.614,0,0,1-2.876-2.7m.485,6.48h4.782v18.4h-4.782Z" transform="translate(-356.939 -22.787)"/>
      <path id="Pfad_5462" data-name="Pfad 5462" d="M551.492,38.935h4.782V64.577h-4.539l-.1-2.426a7.72,7.72,0,0,1-6.306,2.772,9.564,9.564,0,1,1,0-19.127,7.759,7.759,0,0,1,6.168,2.6Zm-5.44,22a5.579,5.579,0,1,0-5.579-5.579,5.468,5.468,0,0,0,5.579,5.579" transform="translate(-376.919 -27.392)"/>
      <path id="Pfad_5463" data-name="Pfad 5463" d="M615.117,71.64a9.3,9.3,0,0,1,9.633-9.564c5.821,0,9.564,3.881,9.564,9.564,0,.693,0,.936-.069,1.975H620.107c.52,2.01,2.218,3.638,5.267,3.638a6.1,6.1,0,0,0,4.99-2.01l2.98,2.98a11.219,11.219,0,0,1-8.177,2.98c-6.48,0-10.049-3.881-10.049-9.564m14.415-1.906a4.308,4.308,0,0,0-4.574-3.707,4.772,4.772,0,0,0-4.99,3.707Z" transform="translate(-432.747 -43.672)"/>
      <rect id="Rechteck_138" data-name="Rechteck 138" width="4.782" height="25.642" transform="translate(204.65 11.543)"/>
      <path id="Pfad_5464" data-name="Pfad 5464" d="M724.619,48.4a7.758,7.758,0,0,1,6.167-2.6,9.564,9.564,0,0,1,0,19.127,7.718,7.718,0,0,1-6.306-2.772l-.1,2.425h-4.539V38.936h4.782Zm5.44,1.386a5.579,5.579,0,1,0,5.579,5.579,5.51,5.51,0,0,0-5.579-5.579" transform="translate(-506.42 -27.392)"/>
      <path id="Pfad_5465" data-name="Pfad 5465" d="M796.389,71.64a9.3,9.3,0,0,1,9.633-9.564c5.821,0,9.564,3.881,9.564,9.564,0,.693,0,.936-.069,1.975H801.378c.52,2.01,2.217,3.638,5.267,3.638a6.1,6.1,0,0,0,4.99-2.01l2.98,2.98a11.218,11.218,0,0,1-8.177,2.98c-6.48,0-10.049-3.881-10.049-9.564M810.8,69.734a4.308,4.308,0,0,0-4.574-3.707,4.772,4.772,0,0,0-4.99,3.707Z" transform="translate(-560.276 -43.672)"/>
      <path id="Pfad_5466" data-name="Pfad 5466" d="M871.539,81.679V71.215c0-4.851,3.118-7.97,7.97-7.97h4.3v4.3h-3.188c-3.049,0-4.3,1.247-4.3,4.3v9.841Z" transform="translate(-613.146 -44.494)"/>
      <path id="Pfad_5467" data-name="Pfad 5467" d="M918.55,85.431l2.98-2.98a8.071,8.071,0,0,0,6.341,2.425A4.8,4.8,0,0,0,933,79.748V78.6a7.758,7.758,0,0,1-6.167,2.6,9.564,9.564,0,1,1,0-19.127,7.719,7.719,0,0,1,6.306,2.772l.1-2.425h4.539v16.84c0,5.891-4.02,9.564-9.91,9.564-4.5,0-7.588-1.525-9.321-3.4m9.009-8.212a5.579,5.579,0,1,0-5.579-5.579,5.468,5.468,0,0,0,5.579,5.579" transform="translate(-645.317 -43.672)"/>
    </g>
  </g>
</svg>
